PathFileType	4	(X/Y/Z)	C:/Users/beibeiliu/ov580/test_trc/User3\sequence.4_training_dense_right.trc
DataRate	CameraRate	NumFrames	NumMarkers	Units	OrigDataRate	OrigDataStartFrame	OrigNumFrames
120	120	16	19	mm	120	131	209
Frame#	Time	ThumbCMC			ThumbMCP			ThumbIP			ThumbTip			IndexMCP			IndexPIP			IndexTip			MiddleMCP			MiddlePIP			MiddleTip			RingMCP			RingPIP			RingTip			PinkyMCP			PinkyPIP			PinkyTip			BackHand1			BackHand2			BackHand3	
		X0	Y0	Z0	X1	Y1	Z1	X2	Y2	Z2	X3	Y3	Z3	X4	Y4	Z4	X5	Y5	Z5	X6	Y6	Z6	X7	Y7	Z7	X8	Y8	Z8	X9	Y9	Z9	X10	Y10	Z10	X11	Y11	Z11	X12	Y12	Z12	X13	Y13	Z13	X14	Y14	Z14	X15	Y15	Z15	X16	Y16	Z16	X17	Y17	Z17	X18	Y18	Z18	
130	1.08333	266.645	-20.6001	22.6901	273.219	-9.98511	-7.80295	278.822	-3.97429	-33.8234	281.525	4.48568	-52.2323	287.894	-66.1612	-38.4119	295.386	-67.6707	-63.184	298.363	-79.4247	-85.6824	280.494	-96.189	-33.523	286.001	-106.622	-59.6545	287.901	-117.261	-86.2436	264.852	-105.735	-21.473	268.664	-120.221	-41.9408	269.14	-135.111	-65.8208	242.272	-111.021	-7.41528	234.574	-126.563	-16.2687	230.799	-145.399	-32.7928	266.484	-83.4686	22.177	258.391	-76.5732	53.0446	277.889	-54.0206	26.6745	
131	1.09167	268.098	-14.5316	21.6802	269.568	-2.61125	-2.29906	276.904	7.33212	-32.9238	278.554	13.9204	-49.6404	295.65	-50.7548	-35.6612	303.217	-55.7879	-60.2961	308.13	-60.4534	-85.3441	291.139	-81.6506	-28.9792	299.85	-93.9515	-59.1977	302.692	-107.538	-86.4876	277.522	-96.1294	-18.277	284.781	-110.485	-39.6128	285.853	-126.223	-64.3611	257.05	-106.446	-3.62429	253.266	-123.984	-19.1949	251.302	-140.848	-30.4923	274.772	-74.2015	25.7098	271.031	-69.9661	51.5073	284.891	-45.6765	27.1106	
132	1.1	264.414	-1.43431	26.083	265.681	6.81618	-1.4442	271.896	15.7224	-31.8293	271.669	19.4586	-50.2727	298.922	-43.3835	-32.9793	307.058	-45.8886	-58.4081	316.047	-47.1798	-86.9002	303.265	-65.2857	-28.3421	311.964	-78.5277	-56.3141	316.843	-88.4924	-81.8887	291.634	-85.3803	-17.7634	299.926	-96.0288	-36.4688	304.933	-108.948	-63.233	270.899	-97.6974	0.204071	273.263	-116.185	-19.0701	272.88	-129.751	-33.1171	284.882	-67.0482	29.7225	275.145	-61.2317	57.5205	288.005	-31.4137	33.8065	
133	1.10833	259.112	5.39858	26.9989	260.458	9.37924	-4.033	261.515	18.8935	-27.9938	261.869	27.1152	-49.728	302.704	-25.3956	-34.353	309.307	-28.0207	-59.3508	318.455	-35.6395	-83.7018	309.461	-55.9821	-27.7349	317.939	-58.3728	-51.8383	327.064	-71.7104	-80.0176	301.448	-72.9767	-14.3823	311.578	-84.4201	-34.2411	317.91	-96.6163	-57.7969	285.992	-91.4618	1.00982	290.75	-107.817	-16.3792	293.831	-116.484	-31.2861	290.113	-54.9538	29.4029	283.522	-46.9515	54.9615	286.984	-19.0384	32.5563	
134	1.11667	254.018	6.90442	28.5368	251.415	14.8372	0.0584732	251.997	30.7868	-29.0358	251.862	37.5781	-49.4442	302.186	-14.1559	-31.1314	307.57	-9.98412	-56.2737	316.837	-14.4319	-82.9798	313.974	-36.9377	-26.6928	324.183	-44.97	-51.6083	334.657	-56.4295	-82.4768	309.543	-55.3519	-14.5819	319.972	-64.8296	-33.7116	329.704	-74.3127	-62.628	295.699	-74.6315	3.24973	305.565	-89.1635	-17.4527	312.118	-100.987	-31.6869	294.511	-40.0389	33.5108	282.117	-37.0624	60.6434	285.462	-11.1199	37.2345	
135	1.125	248.416	13.912	26.9858	242.371	23.8109	0.260026	241.203	35.8894	-28.0009	239.961	40.6577	-47.3222	296.107	2.54652	-30.1259	304.653	1.01054	-55.2976	312.836	0.600236	-79.1851	315.654	-25.3061	-26.7061	325.925	-29.4003	-50.4988	335.303	-35.7816	-77.5541	314.282	-42.09	-16.826	325.782	-49.1392	-37.2698	333.876	-57.8157	-57.7097	302.568	-62.5535	1.75236	315.762	-76.4992	-15.8251	325.357	-86.6976	-30.522	296.13	-31.5498	30.5355	284.64	-26.9338	61.4697	281.917	-1.37964	33.2757	
136	1.13333	239.265	17.4807	29.4836	236.054	23.4745	0.103729	231.706	34.3214	-26.0072	228.129	43.4062	-46.5044	292.294	10.5658	-28.7975	294.608	18.8859	-54.477	304.898	17.9822	-80.7875	312.415	-10.7211	-25.6543	321.785	-10.1781	-49.1699	333.256	-18.0009	-77.9442	313.073	-30.6153	-13.0627	325.125	-35.0146	-34.2092	337.822	-41.2071	-59.2233	307	-49.3236	1.93835	320.033	-61.5437	-15.3658	332.296	-67.5898	-31.7289	296.447	-20.1189	31.4027	282.424	-22.1443	61.7489	278.151	7.56304	35.3118	
137	1.14167	230.719	20.064	29.3172	226.042	26.4018	-0.406519	219.802	39.1084	-27.073	214.333	42.0237	-44.5965	284.217	23.836	-31.9998	284.785	29.9324	-54.9166	291.629	35.4428	-77.4934	306.818	3.37627	-25.4443	318.742	6.15072	-53.6301	328.046	2.73507	-80.0057	313.288	-16.7971	-14.9777	325.767	-18.1338	-37.3597	336.904	-22.8587	-61.0638	309.299	-36.8461	-0.898575	322.117	-45.197	-14.266	337.094	-56.305	-30.2966	293.815	-12.4392	34.5345	280.105	-8.58835	59.7159	269.143	17.0462	34.6304	
138	1.15	222.158	21.5592	29.686	214.191	27.2779	2.47199	206.299	37.7245	-24.8652	197.979	43.9651	-43.9156	274.051	32.8769	-30.7404	273.457	41.534	-55.5834	279.765	45.9118	-76.107	299.742	17.6528	-25.4904	309.988	20.2472	-52.8602	321.804	18.3987	-75.254	305.473	-3.51817	-11.7651	323.164	-4.88316	-34.0333	333.224	-4.72222	-58.597	307.288	-24.3109	0.795861	321.144	-30.0954	-13.6211	338.42	-37.382	-28.4273	287.776	1.42	32.65	277.132	-3.76459	60.7128	259.558	21.0571	38.8492	
139	1.15833	215.376	18.9052	32.3577	207.336	24.6131	2.57933	194.398	34.0878	-23.3149	188.861	36.5159	-41.7839	257.848	43.0789	-28.7183	258.254	50.0199	-54.6253	261.913	55.873	-73.6814	288.287	30.6091	-23.41	299.406	34.9296	-50.6707	311.277	36.7779	-74.9282	296.777	10.9143	-11.8721	313.469	11.6814	-30.8028	328.413	12.4253	-57.5639	304.676	-14.2531	2.52537	316.697	-15.6362	-10.761	335.847	-19.832	-27.2144	279.318	9.99657	33.1709	270.151	4.27655	62.5894	251.725	26.167	40.2302	
140	1.16667	207.479	20.3494	31.6546	191.879	24.9071	5.85659	182.643	29.0659	-18.7344	176.156	33.672	-40.321	245.224	46.3714	-25.4446	247.39	54.2515	-54.0294	245.728	63.9746	-74.7326	275.064	38.9387	-20.6688	284.856	47.6986	-49.0824	298.441	52.1649	-73.7462	292.634	20.5252	-10.8444	303.151	27.4961	-31.6177	320.23	28.9359	-55.8341	295.244	-3.10626	5.00591	310.581	-2.24541	-9.55078	331.529	-1.97355	-28.7137	272.846	12.5779	36.7191	263.043	9.0516	60.5381	239.278	31.9208	39.7889	
141	1.175	193.495	18.7801	35.1016	184.52	21.3892	4.56395	170.284	28.0271	-20.175	165.144	27.474	-39.2611	230.961	51.6154	-28.1991	233.847	57.3839	-50.9191	234.052	65.5387	-73.729	264.955	44.2988	-20.4042	269.051	55.9851	-47.5687	280.517	63.3993	-73.0195	278.138	32.217	-13.591	293.497	37.712	-32.3752	303.161	44.192	-52.1476	289.507	5.24736	6.13356	306.155	9.3953	-11.9465	322.831	10.0041	-24.2533	261.179	23.5746	33.8187	256.169	14.0077	64.211	232.535	32.3477	40.8981	
142	1.18333	185.616	18.727	32.0043	170.949	19.4718	8.19107	160.29	23.8519	-19.3427	154.192	22.1233	-36.9313	220.723	51.9665	-26.7357	216.632	58.7345	-50.1813	216.342	68.3215	-72.1745	251.843	51.1241	-22.4228	258.44	59.172	-45.2471	266.965	71.0407	-77.1583	269.161	38.7766	-13.8369	276.447	46.2283	-29.763	292.237	55.3613	-55.6764	280.698	15.1431	4.0723	293.341	20.3702	-10.3089	314.943	24.5043	-22.6444	250.199	25.6184	36.6576	249.929	19.9556	61.0624	218.821	37.1208	40.4346	
143	1.19167	180.221	16.4457	32.9663	163.397	15.7515	10.4787	149.917	19.3516	-18.7332	142.633	20.3179	-38.9146	207.281	50.0593	-25.257	203.023	58.9931	-53.6021	205.626	67.3581	-74.5017	239.199	51.9399	-21.559	245.528	61.9888	-46.6156	251	74.3038	-77.6235	255.471	39.6219	-10.6739	270.1	51.5392	-34.5554	277.78	60.0494	-54.9049	270.284	18.5672	5.1146	285.01	24.5841	-10.0211	299.391	36.3511	-25.5303	242.18	32.7084	32.0582	236.347	20.4979	63.7797	210.1	34.4272	38.9339	
144	1.2	171.314	11.5657	38.7786	154.01	11.5679	10.8954	143.636	13.4936	-15.7847	132.584	12.4954	-34.4594	196.11	49.4263	-28.8394	194.667	56.6191	-54.2988	188.512	63.7556	-73.4493	224.599	51.0056	-22.5556	231.949	62.4143	-50.1857	236.225	73.4102	-76.7413	246.38	42.5991	-14.3601	256.228	50.7944	-31.9867	267.466	62.4673	-57.8775	263.544	21.9237	3.42707	276.521	31.7298	-14.4086	287.351	38.763	-24.9176	234.028	30.7319	30.001	228.378	22.708	63.6025	201.78	36.4817	38.7312	
145	1.20833	163.753	7.69889	37.3476	148.147	7.03708	9.12668	133.189	5.93945	-15.0781	124.278	5.21875	-34.816	188.469	44.493	-30.0059	182.36	50.9379	-52.1854	177.365	57.975	-76.1483	215.985	48.847	-22.998	219.662	59.6246	-49.5937	225.727	69.6127	-77.8464	235.016	41.1641	-14.6269	244.63	52.3694	-35.9248	255.817	60.1139	-59.4279	251.698	22.0195	1.9003	264.664	30.1875	-13.1658	282.176	39.3349	-25.0255	227.711	28.3793	33.4068	221.6	22.3208	61.087	194.683	32.5356	39.5895	
